<?xml version="1.0" encoding="utf-8"?>
<!-- Generator: Adobe Illustrator 19.0.0, SVG Export Plug-In . SVG Version: 6.00 Build 0)  -->
<svg version="1.1" id="Layer_1" xmlns="http://www.w3.org/2000/svg" xmlns:xlink="http://www.w3.org/1999/xlink" x="0px" y="0px"
	 viewBox="0 0 16 16" style="enable-background:new 0 0 16 16;" xml:space="preserve">
<style type="text/css">
	.st0{clip-path:url(#XMLID_5_);fill:#28B571;}
	.st1{clip-path:url(#XMLID_5_);}
	.st2{clip-path:url(#XMLID_74_);fill:#28B571;}
	.st3{clip-path:url(#XMLID_75_);fill:#324788;}
	.st4{clip-path:url(#XMLID_75_);fill:#FFFFFF;}
	.st5{clip-path:url(#XMLID_76_);fill:#FFFFFF;}
	.st6{fill:#28B571;}
</style>
<g id="XMLID_3_">
	<g>
		<defs>
			<rect id="XMLID_8_" x="-1.4" width="56" height="16"/>
		</defs>
		<clipPath id="XMLID_5_">
			<use xlink:href="#XMLID_8_"  style="overflow:visible;"/>
		</clipPath>
		<rect id="XMLID_73_" x="6.8" class="st0" width="47.8" height="16"/>
		<g class="st1">
			<defs>
				<rect id="XMLID_71_" x="0.8" width="13.2" height="16"/>
			</defs>
			<clipPath id="XMLID_74_">
				<use xlink:href="#XMLID_71_"  style="overflow:visible;"/>
			</clipPath>
			<path id="XMLID_72_" class="st2" d="M8.7,0.6c0,0,0.5,0-0.1,0.9c0,0-0.1,0.1-0.2,0c0,0,0,0.3-0.2,0.4v0.9c0,0,0.1,0.3,1.2,0.6
				c0,0,1.5,0.2,1.7,1c0,0,0.3,0.8,0.2,1.6c0,0,0,0.1,0.1,0.4c0,0,0.2,0.5,0.3,1.7c0,0,0.1,0.2,0.2,0.4c0,0,0.3,0.3,0.5,2.9
				c0,0,0.1,0.8,0.2,0.9c0,0,0.5,0.3,0.6,0.5c0,0,0.1,0.1,0.2,0.2c0,0,0.1,0.1,0.2,0.3c0,0,0.1,0.2,0.2,0.3c0,0-0.1,0.3-0.5-0.1
				l-0.1-0.1c0,0,0,0.8,0.1,1c0,0,0.1,1-0.3,0.8c0,0,0,0.3-0.2,0.3c0,0-0.1,0-0.1-0.1c0,0-0.2,0.3-0.3-0.4l-0.1-0.5
				c0,0,0.1,0.7-0.1,0.8c0,0-0.1,0.1-0.2-0.6c0,0-0.1-0.4-0.1-0.4c0,0-0.2-0.4-0.1-0.9c0,0,0-0.3,0.1-0.4c0,0-0.1-0.7-0.7-1.7
				c0,0-0.7-0.9-0.7-2.5c0,0-0.2-0.9-0.3-1.2c0,0-0.6,1.1-0.4,2.3c0,0,0.1,0.7,0.1,1.1c0,0,0.6,2,0.6,2.9c0,0,0.2,3.2-0.2,4.3
				c0,0,0,0.2,0,0.5c0,0,0.1,0.4,0.1,1.2c0,0,0.1,0.5,0.1,0.7c0,0,0.2,1.5-0.2,2.7c0,0-0.4,1.5-0.4,2c0,0,0.1,0.5,0,0.8
				c0,0,0.1,0.5,0.3,0.8c0,0,0.2,0.2,0.2,0.5c0,0,0.1,0.3-0.2,0.4c0,0-0.1,0.2-0.2,0.1c0,0-0.1,0.1-0.2,0.1c0,0-0.2,0.2-0.4,0
				c0,0-0.2,0.3-0.5,0c0,0-0.4-0.5-0.2-0.8c0,0,0.1-0.3,0-0.5c0,0-0.1-0.3,0-0.5c0,0-0.1-0.5,0-0.8c0,0,0.1-0.9,0.1-1.4
				c0,0-0.1-0.7-0.2-0.9c0,0-0.2-1.3,0-2.1c0,0,0.2-0.5,0-1c0,0-0.2-0.5-0.2-1.3c0,0-0.2-0.5-0.2-1c0,0-0.1-1.7-0.3-2.3
				c0,0-0.2-0.6-0.1-1.5H7.2c0.1,0.9-0.1,1.5-0.1,1.5c-0.3,0.6-0.3,2.3-0.3,2.3c0,0.6-0.2,1-0.2,1c0,0.8-0.2,1.3-0.2,1.3
				c-0.1,0.5,0,1,0,1c0.3,0.8,0,2.1,0,2.1C6.2,23.3,6.1,24,6.1,24c-0.1,0.5,0.1,1.4,0.1,1.4c0.1,0.4,0,0.8,0,0.8
				c0.1,0.1,0,0.5,0,0.5c-0.1,0.2,0,0.5,0,0.5C6.3,27.5,6,28,6,28c-0.3,0.3-0.5,0-0.5,0c-0.1,0.2-0.4,0-0.4,0
				c-0.1,0-0.2-0.1-0.2-0.1c-0.1,0-0.2-0.1-0.2-0.1c-0.2-0.1-0.2-0.4-0.2-0.4c0-0.3,0.2-0.5,0.2-0.5c0.2-0.3,0.3-0.8,0.3-0.8
				c-0.1-0.3,0-0.8,0-0.8c0.1-0.5-0.4-2-0.4-2c-0.4-1.2-0.2-2.7-0.2-2.7c0.1-0.2,0.1-0.7,0.1-0.7c-0.1-0.9,0.1-1.2,0.1-1.2
				c0.1-0.2,0-0.5,0-0.5c-0.4-1-0.2-4.3-0.2-4.3C4.5,13,5.1,11,5.1,11c0-0.4,0.1-1.1,0.1-1.1c0.2-1.2-0.4-2.3-0.4-2.3
				C4.6,7.8,4.4,8.7,4.4,8.7c0,1.6-0.7,2.5-0.7,2.5c-0.6,1-0.7,1.7-0.7,1.7c0.1,0.1,0.1,0.4,0.1,0.4c0,0.5-0.1,0.9-0.1,0.9
				c0,0.1-0.1,0.5-0.1,0.5c-0.1,0.7-0.2,0.6-0.2,0.6c-0.2,0-0.1-0.8-0.1-0.8L2.4,15c-0.1,0.7-0.3,0.4-0.3,0.4c0,0.1-0.1,0.1-0.1,0.1
				c-0.2,0-0.2-0.3-0.2-0.3c-0.3,0.2-0.3-0.8-0.3-0.8c0-0.1,0.1-1,0.1-1l-0.1,0.1C1.1,14,1,13.7,1,13.7c0.1-0.1,0.2-0.3,0.2-0.3
				c0.1-0.2,0.2-0.3,0.2-0.3c0.1-0.1,0.2-0.2,0.2-0.2c0.1-0.2,0.6-0.5,0.6-0.5c0.1-0.1,0.2-0.9,0.2-0.9c0.2-2.6,0.5-2.9,0.5-2.9
				C3,8.4,3,8.2,3,8.2c0.1-1.2,0.3-1.7,0.3-1.7c0.1-0.3,0.1-0.4,0.1-0.4C3.3,5.3,3.6,4.5,3.6,4.5c0.2-0.8,1.7-1,1.7-1
				c1.1-0.3,1.1-0.6,1.1-0.6V2C6.3,1.9,6.3,1.6,6.3,1.6c-0.1,0.1-0.2,0-0.2,0C5.6,0.6,6.1,0.6,6.1,0.6S5.9,0.4,5.9,0.1
				c0,0-0.2-0.9,0.6-1.1c0,0,0-0.2,0.3-0.3c0,0-0.1,0.1,0,0.1c0,0,0.5-0.4,0.9-0.1c0,0,0.7-0.2,1.1,0.7c0,0,0.2,0.2,0.1,0.6
				C8.9-0.1,9,0.2,8.7,0.6"/>
		</g>
		<g class="st1">
			<defs>
				<rect id="XMLID_36_" x="-1.4" width="21.3" height="16"/>
			</defs>
			<clipPath id="XMLID_75_">
				<use xlink:href="#XMLID_36_"  style="overflow:visible;"/>
			</clipPath>
			<path id="XMLID_70_" class="st3" d="M7.9,8.9c-0.2,0-0.4-0.2-0.4-0.4c0-0.2,0.2-0.4,0.4-0.4c0.2,0,0.4,0.2,0.4,0.4
				C8.3,8.8,8.1,8.9,7.9,8.9"/>
			<path id="XMLID_69_" class="st3" d="M7.9,8.1c-0.2,0-0.3-0.1-0.3-0.3c0-0.2,0.1-0.3,0.3-0.3c0.2,0,0.3,0.2,0.3,0.3
				C8.2,7.9,8.1,8.1,7.9,8.1"/>
			<path id="XMLID_68_" class="st3" d="M7.9,9.7c-0.2,0-0.3-0.2-0.3-0.3c0-0.2,0.2-0.3,0.3-0.3c0.2,0,0.3,0.1,0.3,0.3
				C8.2,9.6,8.1,9.7,7.9,9.7"/>
			<path id="XMLID_67_" class="st3" d="M7.9,7.2c-0.2,0-0.3-0.1-0.3-0.3c0-0.2,0.1-0.3,0.3-0.3c0.2,0,0.3,0.1,0.3,0.3
				C8.2,7.1,8.1,7.2,7.9,7.2"/>
			<path id="XMLID_66_" class="st3" d="M8.2,10.2c0,0.2-0.1,0.3-0.3,0.3c-0.2,0-0.3-0.1-0.3-0.3c0-0.2,0.1-0.3,0.3-0.3
				C8.1,9.9,8.2,10.1,8.2,10.2"/>
			<path id="XMLID_65_" class="st3" d="M7.9,10.8c0.2,0,0.3,0.1,0.3,0.3c0,0.2-0.1,0.3-0.3,0.3c-0.1,0-0.3-0.1-0.3-0.3
				C7.6,10.9,7.8,10.8,7.9,10.8"/>
			<path id="XMLID_64_" class="st3" d="M7.9,6.3C7.8,6.3,7.6,6.2,7.6,6c0-0.1,0.1-0.3,0.3-0.3c0.1,0,0.3,0.1,0.3,0.3
				C8.2,6.2,8.1,6.3,7.9,6.3"/>
			<path id="XMLID_63_" class="st3" d="M8.2,5.2c0,0.1-0.1,0.2-0.3,0.2c-0.1,0-0.2-0.1-0.2-0.2C7.7,5.1,7.8,5,7.9,5
				C8,5,8.2,5.1,8.2,5.2"/>
			<path id="XMLID_62_" class="st3" d="M7.7,11.9c0,0.1,0.1,0.2,0.2,0.2c0.1,0,0.2-0.1,0.2-0.2c0-0.1-0.1-0.2-0.2-0.2
				C7.8,11.7,7.7,11.8,7.7,11.9"/>
			<path id="XMLID_61_" class="st3" d="M7.9,12.5c0.1,0,0.2,0.1,0.2,0.2C8.1,12.9,8,13,7.9,13c-0.1,0-0.2-0.1-0.2-0.2
				C7.7,12.6,7.8,12.5,7.9,12.5"/>
			<path id="XMLID_60_" class="st3" d="M8.1,4.4c0,0.1-0.1,0.2-0.2,0.2c-0.1,0-0.2-0.1-0.2-0.2c0-0.1,0.1-0.2,0.2-0.2
				C8,4.2,8.1,4.3,8.1,4.4"/>
			<path id="XMLID_59_" class="st3" d="M7.9,3.4c0.1,0,0.2,0.1,0.2,0.2c0,0.1-0.1,0.2-0.2,0.2c-0.1,0-0.2-0.1-0.2-0.2
				C7.7,3.4,7.8,3.4,7.9,3.4"/>
			<path id="XMLID_58_" class="st3" d="M8.1,13.6c0,0.1-0.1,0.2-0.2,0.2c-0.1,0-0.2-0.1-0.2-0.2c0-0.1,0.1-0.2,0.2-0.2
				C8,13.4,8.1,13.5,8.1,13.6"/>
			<path id="XMLID_57_" class="st3" d="M8.1,2.7c0,0.1-0.1,0.1-0.1,0.1c-0.1,0-0.1-0.1-0.1-0.1c0-0.1,0.1-0.1,0.1-0.1
				C8,2.5,8.1,2.6,8.1,2.7"/>
			<path id="XMLID_56_" class="st3" d="M8,1.8C8,1.9,8,2,7.9,2C7.9,2,7.8,1.9,7.8,1.8c0-0.1,0.1-0.1,0.1-0.1C8,1.7,8,1.8,8,1.8"/>
			<path id="XMLID_55_" class="st3" d="M7.7,14.4c0-0.1,0.1-0.1,0.1-0.1C8,14.3,8,14.3,8,14.4c0,0.1-0.1,0.1-0.1,0.1
				C7.8,14.6,7.7,14.5,7.7,14.4"/>
			<path id="XMLID_54_" class="st3" d="M7.8,15.2c0-0.1,0.1-0.1,0.1-0.1C8,15,8,15.1,8,15.2c0,0.1-0.1,0.1-0.1,0.1
				C7.8,15.3,7.8,15.2,7.8,15.2"/>
			<path id="XMLID_53_" class="st4" d="M7.9,8.9c-0.2,0-0.4-0.2-0.4-0.4c0-0.2,0.2-0.4,0.4-0.4c0.2,0,0.4,0.2,0.4,0.4
				C8.3,8.8,8.1,8.9,7.9,8.9"/>
			<path id="XMLID_52_" class="st4" d="M7.9,8.1c-0.2,0-0.3-0.1-0.3-0.3c0-0.2,0.1-0.3,0.3-0.3c0.2,0,0.3,0.2,0.3,0.3
				C8.2,7.9,8.1,8.1,7.9,8.1"/>
			<path id="XMLID_51_" class="st4" d="M7.9,9.7c-0.2,0-0.3-0.2-0.3-0.3c0-0.2,0.2-0.3,0.3-0.3c0.2,0,0.3,0.1,0.3,0.3
				C8.2,9.6,8.1,9.7,7.9,9.7"/>
			<path id="XMLID_50_" class="st4" d="M7.9,7.2c-0.2,0-0.3-0.1-0.3-0.3c0-0.2,0.1-0.3,0.3-0.3c0.2,0,0.3,0.1,0.3,0.3
				C8.2,7.1,8.1,7.2,7.9,7.2"/>
			<path id="XMLID_49_" class="st4" d="M8.2,10.2c0,0.2-0.1,0.3-0.3,0.3c-0.2,0-0.3-0.1-0.3-0.3c0-0.2,0.1-0.3,0.3-0.3
				C8.1,9.9,8.2,10.1,8.2,10.2"/>
			<path id="XMLID_48_" class="st4" d="M7.9,10.8c0.2,0,0.3,0.1,0.3,0.3c0,0.2-0.1,0.3-0.3,0.3c-0.1,0-0.3-0.1-0.3-0.3
				C7.6,10.9,7.8,10.8,7.9,10.8"/>
			<path id="XMLID_47_" class="st4" d="M7.9,6.3C7.8,6.3,7.6,6.2,7.6,6c0-0.1,0.1-0.3,0.3-0.3c0.1,0,0.3,0.1,0.3,0.3
				C8.2,6.2,8.1,6.3,7.9,6.3"/>
			<path id="XMLID_46_" class="st4" d="M8.2,5.2c0,0.1-0.1,0.2-0.3,0.2c-0.1,0-0.2-0.1-0.2-0.2C7.7,5.1,7.8,5,7.9,5
				C8,5,8.2,5.1,8.2,5.2"/>
			<path id="XMLID_45_" class="st4" d="M7.7,11.9c0,0.1,0.1,0.2,0.2,0.2c0.1,0,0.2-0.1,0.2-0.2c0-0.1-0.1-0.2-0.2-0.2
				C7.8,11.7,7.7,11.8,7.7,11.9"/>
			<path id="XMLID_44_" class="st4" d="M7.9,12.5c0.1,0,0.2,0.1,0.2,0.2C8.1,12.9,8,13,7.9,13c-0.1,0-0.2-0.1-0.2-0.2
				C7.7,12.6,7.8,12.5,7.9,12.5"/>
			<path id="XMLID_43_" class="st4" d="M8.1,4.4c0,0.1-0.1,0.2-0.2,0.2c-0.1,0-0.2-0.1-0.2-0.2c0-0.1,0.1-0.2,0.2-0.2
				C8,4.2,8.1,4.3,8.1,4.4"/>
			<path id="XMLID_42_" class="st4" d="M7.9,3.4c0.1,0,0.2,0.1,0.2,0.2c0,0.1-0.1,0.2-0.2,0.2c-0.1,0-0.2-0.1-0.2-0.2
				C7.7,3.4,7.8,3.4,7.9,3.4"/>
			<path id="XMLID_41_" class="st4" d="M8.1,13.6c0,0.1-0.1,0.2-0.2,0.2c-0.1,0-0.2-0.1-0.2-0.2c0-0.1,0.1-0.2,0.2-0.2
				C8,13.4,8.1,13.5,8.1,13.6"/>
			<path id="XMLID_40_" class="st4" d="M8.1,2.7c0,0.1-0.1,0.1-0.1,0.1c-0.1,0-0.1-0.1-0.1-0.1c0-0.1,0.1-0.1,0.1-0.1
				C8,2.5,8.1,2.6,8.1,2.7"/>
			<path id="XMLID_39_" class="st4" d="M8,1.8C8,1.9,8,2,7.9,2C7.9,2,7.8,1.9,7.8,1.8c0-0.1,0.1-0.1,0.1-0.1C8,1.7,8,1.8,8,1.8"/>
			<path id="XMLID_38_" class="st4" d="M7.7,14.4c0-0.1,0.1-0.1,0.1-0.1C8,14.3,8,14.3,8,14.4c0,0.1-0.1,0.1-0.1,0.1
				C7.8,14.6,7.7,14.5,7.7,14.4"/>
			<path id="XMLID_37_" class="st4" d="M7.8,15.2c0-0.1,0.1-0.1,0.1-0.1C8,15,8,15.1,8,15.2c0,0.1-0.1,0.1-0.1,0.1
				C7.8,15.3,7.8,15.2,7.8,15.2"/>
		</g>
		<g class="st1">
			<defs>
				<rect id="XMLID_9_" x="-1.4" width="56" height="16"/>
			</defs>
			<clipPath id="XMLID_76_">
				<use xlink:href="#XMLID_9_"  style="overflow:visible;"/>
			</clipPath>
			<path id="XMLID_35_" class="st5" d="M12.2,7.7c-0.2,0-0.3-0.1-0.3-0.3c0-0.1,0-0.1,0.1-0.2l3.2-4.7h-2.8c-0.2,0-0.3-0.1-0.3-0.3
				S12.2,2,12.4,2h3.3c0.2,0,0.3,0.1,0.3,0.3c0,0.1,0,0.1-0.1,0.2l-3.1,4.7h3c0.2,0,0.3,0.1,0.3,0.3s-0.1,0.3-0.3,0.3H12.2z"/>
			<path class="st5" d="M17.1,7.7c-0.2,0-0.3-0.1-0.3-0.3V2.3c0-0.2,0.1-0.3,0.3-0.3h1.4c1.2,0,1.7,0.6,1.7,1.5c0,0.6-0.3,1-0.8,1.2
				c0.6,0.2,1.1,0.6,1.1,1.4c0,1-0.6,1.6-1.7,1.6H17.1z M17.4,4.5h1.1c0.8,0,1.2-0.4,1.2-1c0-0.6-0.4-1-1.2-1h-1.1V4.5z M17.4,7.2
				h1.4c0.8,0,1.2-0.4,1.2-1.1C20,5.4,19.5,5,18.8,5h-1.4V7.2z"/>
			<path class="st5" d="M22.2,6l-0.6,1.6c0,0.1-0.1,0.2-0.3,0.2c-0.2,0-0.3-0.1-0.3-0.3c0,0,0-0.1,0-0.1l2.1-5.2
				c0-0.1,0.1-0.2,0.3-0.2c0.1,0,0.2,0.1,0.3,0.2l2.1,5.2c0,0,0,0.1,0,0.1c0,0.2-0.1,0.3-0.3,0.3c-0.1,0-0.2-0.1-0.3-0.2L24.6,6
				H22.2z M23.4,2.9l-1,2.6h2L23.4,2.9z"/>
			<path id="XMLID_29_" class="st5" d="M29.6,2.1c0-0.1,0.1-0.2,0.3-0.2c0.2,0,0.3,0.1,0.3,0.3c0,0.1,0,0.1,0,0.1l-2,5.2
				c0,0.1-0.2,0.2-0.3,0.2c-0.1,0-0.2-0.1-0.3-0.2l-2-5.2c0,0,0-0.1,0-0.1c0-0.2,0.1-0.3,0.3-0.3c0.2,0,0.2,0.1,0.3,0.2l1.7,4.6
				L29.6,2.1z"/>
			<path id="XMLID_28_" class="st5" d="M30.8,2.5c-0.2,0-0.3-0.1-0.3-0.3S30.6,2,30.8,2h3.6c0.2,0,0.3,0.1,0.3,0.3s-0.1,0.3-0.3,0.3
				h-1.5v5c0,0.2-0.1,0.3-0.3,0.3c-0.2,0-0.3-0.1-0.3-0.3v-5H30.8z"/>
			<path id="XMLID_27_" class="st5" d="M35.8,7.7c-0.2,0-0.3-0.1-0.3-0.3V2.3c0-0.2,0.1-0.3,0.3-0.3h2.7c0.1,0,0.3,0.1,0.3,0.3
				c0,0.1-0.1,0.3-0.3,0.3h-2.4v2H38c0.1,0,0.3,0.1,0.3,0.3S38.1,5.1,38,5.1h-1.9v2.1h2.5c0.1,0,0.3,0.1,0.3,0.3
				c0,0.1-0.1,0.3-0.3,0.3H35.8z"/>
			<path id="XMLID_26_" class="st5" d="M43.7,2.4c-0.9,0-1.2,0.4-1.2,0.9c0,1.4,3.2,0.8,3.2,2.9c0,1.1-0.7,1.6-2,1.6
				c-1,0-1.7-0.5-2-1c0-0.1,0-0.1,0-0.2c0-0.2,0.1-0.3,0.3-0.3c0.1,0,0.2,0.1,0.2,0.1c0.3,0.4,0.8,0.8,1.5,0.8
				c0.9,0,1.5-0.4,1.5-1.1c0-1.6-3.2-0.8-3.2-2.9c0-0.8,0.6-1.5,1.8-1.5c0.8,0,1.5,0.3,1.8,0.9c0,0.1,0.1,0.1,0.1,0.2
				c0,0.2-0.1,0.3-0.3,0.3c-0.1,0-0.2,0-0.2-0.1C44.8,2.7,44.4,2.4,43.7,2.4"/>
			<path id="XMLID_25_" class="st5" d="M47,7.7c-0.2,0-0.3-0.1-0.3-0.3V2.3C46.7,2.1,46.8,2,47,2h2.7C49.9,2,50,2.1,50,2.2
				c0,0.1-0.1,0.3-0.3,0.3h-2.4v2h1.9c0.1,0,0.3,0.1,0.3,0.3s-0.1,0.3-0.3,0.3h-1.9v2.1h2.5c0.1,0,0.3,0.1,0.3,0.3
				c0,0.1-0.1,0.3-0.3,0.3H47z"/>
			<path class="st5" d="M17.1,14c-0.1,0-0.2-0.1-0.2-0.2v-3.2c0-0.1,0.1-0.2,0.2-0.2H18c0.7,0,1.1,0.4,1.1,0.9
				c0,0.3-0.2,0.6-0.5,0.7c0.4,0.1,0.7,0.4,0.7,0.9c0,0.6-0.4,1-1.1,1H17.1z M17.3,12H18c0.5,0,0.7-0.2,0.7-0.6
				c0-0.4-0.2-0.6-0.7-0.6h-0.7V12z M17.3,13.7h0.9c0.5,0,0.7-0.3,0.7-0.7c0-0.4-0.3-0.7-0.7-0.7h-0.9V13.7z"/>
			<path class="st5" d="M19.7,12.2c0-1.2,0.6-1.8,1.6-1.8c1,0,1.6,0.6,1.6,1.8c0,1.2-0.6,1.8-1.6,1.8C20.3,14.1,19.7,13.5,19.7,12.2
				 M20.1,12.2c0,1,0.5,1.5,1.3,1.5c0.8,0,1.3-0.5,1.3-1.5c0-1-0.5-1.5-1.3-1.5C20.6,10.7,20.1,11.2,20.1,12.2"/>
			<path id="XMLID_19_" class="st5" d="M25.4,13.7c0.1,0,0.2,0.1,0.2,0.2c0,0.1-0.1,0.2-0.2,0.2h-1.6c-0.1,0-0.2-0.1-0.2-0.2v-3.2
				c0-0.1,0.1-0.2,0.2-0.2s0.2,0.1,0.2,0.2v3.1H25.4z"/>
			<path id="XMLID_18_" class="st5" d="M26.4,14c-0.1,0-0.2-0.1-0.2-0.2v-3.2c0-0.1,0.1-0.2,0.2-0.2h1.7c0.1,0,0.2,0.1,0.2,0.2
				c0,0.1-0.1,0.2-0.2,0.2h-1.5V12h1.2c0.1,0,0.2,0.1,0.2,0.2c0,0.1-0.1,0.2-0.2,0.2h-1.2v1.3h1.6c0.1,0,0.2,0.1,0.2,0.2
				c0,0.1-0.1,0.2-0.2,0.2H26.4z"/>
			<path id="XMLID_17_" class="st5" d="M30,10.7c-0.6,0-0.8,0.3-0.8,0.6c0,0.9,2,0.5,2,1.8c0,0.7-0.5,1-1.3,1c-0.6,0-1-0.3-1.2-0.6
				c0,0,0-0.1,0-0.1c0-0.1,0.1-0.2,0.2-0.2c0.1,0,0.1,0,0.1,0.1c0.2,0.3,0.5,0.5,0.9,0.5c0.6,0,0.9-0.2,0.9-0.7c0-1-2-0.5-2-1.8
				c0-0.5,0.4-0.9,1.1-0.9c0.5,0,0.9,0.2,1.1,0.5c0,0,0,0.1,0,0.1c0,0.1-0.1,0.2-0.2,0.2c0,0-0.1,0-0.1-0.1
				C30.7,10.9,30.4,10.7,30,10.7"/>
			<path id="XMLID_16_" class="st5" d="M31.6,10.8c-0.1,0-0.2-0.1-0.2-0.2c0-0.1,0.1-0.2,0.2-0.2h2.2c0.1,0,0.2,0.1,0.2,0.2
				c0,0.1-0.1,0.2-0.2,0.2h-0.9v3.1c0,0.1-0.1,0.2-0.2,0.2c-0.1,0-0.2-0.1-0.2-0.2v-3.1H31.6z"/>
			<path id="XMLID_15_" class="st5" d="M34.9,13.9c0,0.1-0.1,0.2-0.2,0.2c-0.1,0-0.2-0.1-0.2-0.2v-3.3c0-0.1,0.1-0.2,0.2-0.2
				c0.1,0,0.2,0.1,0.2,0.2V13.9z"/>
			<path id="XMLID_14_" class="st5" d="M36.8,14c-0.1,0-0.2-0.1-0.2-0.2c0,0,0-0.1,0-0.1l2-2.9h-1.7c-0.1,0-0.2-0.1-0.2-0.2
				c0-0.1,0.1-0.2,0.2-0.2h2c0.1,0,0.2,0.1,0.2,0.2c0,0,0,0.1,0,0.1l-1.9,2.9H39c0.1,0,0.2,0.1,0.2,0.2c0,0.1-0.1,0.2-0.2,0.2H36.8z
				"/>
			<path class="st5" d="M40.1,12.9l-0.4,1c0,0.1-0.1,0.1-0.2,0.1c-0.1,0-0.2-0.1-0.2-0.2c0,0,0-0.1,0-0.1l1.3-3.2
				c0-0.1,0.1-0.1,0.2-0.1c0.1,0,0.1,0.1,0.2,0.1l1.3,3.2c0,0,0,0.1,0,0.1c0,0.1-0.1,0.2-0.2,0.2C42,14,42,14,41.9,13.9l-0.4-1H40.1
				z M40.8,11l-0.6,1.6h1.2L40.8,11z"/>
			<path class="st5" d="M43.8,10.5c1,0,1.6,0.5,1.6,1.8c0,1.3-0.6,1.8-1.6,1.8H43c-0.1,0-0.2-0.1-0.2-0.2v-3.2
				c0-0.1,0.1-0.2,0.2-0.2H43.8z M43.2,13.7h0.6c0.8,0,1.3-0.3,1.3-1.4c0-1.1-0.5-1.4-1.3-1.4h-0.6V13.7z"/>
		</g>
	</g>
</g>
<rect id="XMLID_1_" x="10.8" y="0.1" class="st6" width="12.1" height="15.9"/>
</svg>
